<?xml version="1.0" encoding="UTF-8" standalone="no"?>
<!DOCTYPE svg PUBLIC "-//W3C//DTD SVG 1.1//EN" "http://www.w3.org/Graphics/SVG/1.1/DTD/svg11.dtd">
<svg width="100%" height="100%" viewBox="0 0 1112 234" version="1.1" xmlns="http://www.w3.org/2000/svg" xmlns:xlink="http://www.w3.org/1999/xlink" xml:space="preserve" xmlns:serif="http://www.serif.com/" style="fill-rule:evenodd;clip-rule:evenodd;stroke-linejoin:round;stroke-miterlimit:2;">
    <g transform="matrix(5.55556,0,0,5.55556,0,-288.889)">
        <g id="FRC-Guides-Logo" transform="matrix(1.03093,0,0,0.42,0,52)">
            <rect x="0" y="0" width="194" height="100" style="fill:none;"/>
            <g transform="matrix(0.97,0,0,2.38095,0,-69.0476)">
                <g id="Layer_2" transform="matrix(0.0685844,0,0,0.0685844,0,29.5646)">
                    <g id="Layer_1-2">
                    </g>
                    <g transform="matrix(14.5806,0,0,14.5806,69.0922,-103.938)">
                        <g transform="matrix(48,0,0,48,99.7394,43.8839)">
                        </g>
                        <text x="80.923px" y="43.884px" style="font-family:'D-DIN', sans-serif;font-size:48px;fill:rgb(252,131,0);">/</text>
                    </g>
                    <g transform="matrix(14.5806,0,0,14.5806,59.3429,-548.836)">
                        <g transform="matrix(25,0,0,25,194.132,66.8)">
                        </g>
                        <text x="100px" y="66.8px" style="font-family:'Inter-Bold', 'Inter', sans-serif;font-weight:700;font-size:25px;fill:rgb(252,131,0);">GUIDES</text>
                    </g>
                </g>
                <g id="Layer_21" serif:id="Layer_2" transform="matrix(0.0891867,0,0,0.0891867,0,36)">
                    <g id="Layer_1-21" serif:id="Layer_1-2">
                    </g>
                    <g id="Layer_22" serif:id="Layer_2" transform="matrix(1.21429,0,0,1.21429,0,-5.74029)">
                        <g id="Layer_1-22" serif:id="Layer_1-2">
                            <path d="M145.13,64.39L141.13,73.51L198.06,73.51L194.06,64.39L145.13,64.39Z" style="fill:rgb(252,131,0);fill-rule:nonzero;"/>
                            <path d="M119.27,123.94L219.93,123.94L211.74,104.96L127.45,104.96L119.27,123.94Z" style="fill:rgb(252,131,0);fill-rule:nonzero;"/>
                            <path d="M100.57,166.92L81.96,209.62L257.23,209.62L238.63,166.92L100.57,166.92Z" style="fill:rgb(252,131,0);fill-rule:nonzero;"/>
                            <path d="M77.96,123.94L88.38,123.94L102.06,104.96L92.19,104.96L77.96,123.94Z" style="fill:rgb(252,131,0);fill-rule:nonzero;"/>
                            <path d="M115.82,73.51L124.66,73.51L131.17,64.49L131.27,64.39L122.62,64.39L115.82,73.51Z" style="fill:rgb(252,131,0);fill-rule:nonzero;"/>
                            <path d="M142.25,38.44L148.48,38.44L149.22,37.23L151.55,33.6L145.87,33.6L142.25,38.44Z" style="fill:rgb(252,131,0);fill-rule:nonzero;"/>
                            <path d="M187.55,33.6L189.88,37.23L190.72,38.44L196.85,38.44L193.23,33.6L187.55,33.6Z" style="fill:rgb(252,131,0);fill-rule:nonzero;"/>
                            <path d="M216.39,64.39L207.74,64.39L208.67,65.7L208.86,65.98L209.04,66.26L214.34,73.51L223.28,73.51L216.39,64.39Z" style="fill:rgb(252,131,0);fill-rule:nonzero;"/>
                            <path d="M237.04,104.96L250.72,123.94L261.14,123.94L246.91,104.96L237.04,104.96Z" style="fill:rgb(252,131,0);fill-rule:nonzero;"/>
                            <path d="M322,242L310,223.68C310,223.58 310,223.58 310.09,223.58C311.49,220.42 312.89,217.26 314.19,214C314.37,213.53 314.56,213.07 314.75,212.6C315.12,211.67 315.49,210.6 315.86,209.6C316.98,206.6 317.91,203.55 318.86,200.6C321.996,189.611 323.99,178.328 324.81,166.93C324.997,163.597 325.09,160.263 325.09,156.93C325.093,156.514 325.095,156.099 325.095,155.683C325.095,70.4 254.918,0.223 169.635,0.223C84.352,0.223 14.175,70.4 14.175,155.683C14.175,156.099 14.177,156.514 14.18,156.93C14.18,160.263 14.273,163.597 14.46,166.93C15.208,178.311 17.22,189.574 20.46,200.51C21.3,203.58 22.32,206.65 23.35,209.63C23.72,210.56 24.09,211.58 24.46,212.63C24.65,213.1 24.84,213.56 25.02,214.03C26.353,217.29 27.75,220.453 29.21,223.52L29.21,223.71L17.12,242L0,268L44.19,268L72.56,209.67L93.31,166.97L114.24,123.97L123.45,104.97L138.71,73.52L138.8,73.52L140.11,70.73L143.18,64.41L155.83,38.41L183.37,38.41L187,46L190.26,52.69L195.93,64.42L195.93,64.51L200.4,73.51L215.65,105L224.86,124L229.42,133.39L241.23,157.58L245.79,166.98L264.12,204.65L266.54,209.65L268.21,213L283.37,244.26L289.14,256.16L294.91,268L339.1,268L322,242ZM293.44,166.93L272.58,166.93L250.58,133.34L244.44,123.95L231.88,104.95L211.18,73.51L205.18,64.51L205.08,64.42L194.25,47.84L188.11,38.44L185,33.6L181,27.55L178.11,27.55L180.72,33.6L158.53,33.6L161.13,27.55L158.13,27.55L154.13,33.6L151,38.44L144.86,47.84L134,64.4L133.9,64.4L127.9,73.51L107.27,105L94.8,124L89.4,132L72.66,157.52L67.73,165L67.82,165L66.52,167L45.59,167L29.59,188.39C28.005,181.352 26.978,174.2 26.52,167C26.24,163.65 26.15,160.3 26.15,157C26.15,156.944 26.15,156.888 26.15,156.832C26.15,78.16 90.888,13.422 169.56,13.422C207.597,13.422 244.113,28.555 271,55.46C297.983,82.283 313.135,118.823 313.05,156.87C313.05,160.22 312.96,163.57 312.68,166.87C312.177,174.065 311.151,181.214 309.61,188.26L293.44,166.93Z" style="fill:rgb(252,131,0);fill-rule:nonzero;"/>
                            <path d="M401.38,48.7L423.06,48.7L423.06,64L401.38,64L401.38,108.12L384.59,108.12L384.59,1.22L429,1.22L429,16.49L401.38,16.49L401.38,48.7Z" style="fill:rgb(252,131,0);fill-rule:nonzero;"/>
                            <path d="M435.73,26.87C435.73,9.77 444.73,0 461.23,0C477.73,0 486.72,9.77 486.72,26.87L486.72,82.44C486.72,99.54 477.72,109.31 461.23,109.31C444.74,109.31 435.73,99.54 435.73,82.44L435.73,26.87ZM452.53,83.51C452.53,91.14 455.88,94.04 461.23,94.04C466.58,94.04 469.93,91.14 469.93,83.51L469.93,25.8C469.93,18.17 466.57,15.27 461.23,15.27C455.89,15.27 452.53,18.17 452.53,25.8L452.53,83.51Z" style="fill:rgb(252,131,0);fill-rule:nonzero;"/>
                            <path d="M532.68,108.09C531.76,105.34 531.15,103.66 531.15,94.96L531.15,78.16C531.15,68.24 527.79,64.58 520.15,64.58L514.35,64.58L514.35,108.09L497.55,108.09L497.55,1.22L522.9,1.22C540.3,1.22 547.78,9.31 547.78,25.8L547.78,34.2C547.78,45.2 544.27,52.36 536.78,55.88C545.17,59.39 547.92,67.48 547.92,78.62L547.92,95.11C547.92,100.3 548.08,104.11 549.75,108.11L532.68,108.09ZM514.36,16.49L514.36,49.31L520.92,49.31C527.18,49.31 531,46.56 531,38.01L531,27.48C531,19.85 528.4,16.48 522.45,16.48L514.36,16.49Z" style="fill:rgb(252,131,0);fill-rule:nonzero;"/>
                            <path d="M575.73,46.26L598.73,46.26L598.73,61.52L575.73,61.52L575.73,92.82L604.73,92.82L604.73,108.09L558.93,108.09L558.93,1.22L604.73,1.22L604.73,16.49L575.73,16.49L575.73,46.26Z" style="fill:rgb(252,131,0);fill-rule:nonzero;"/>
                            <path d="M640.46,88.39L653.28,1.22L668.7,1.22L652.21,108.09L627.21,108.09L610.69,1.22L627.64,1.22L640.46,88.39Z" style="fill:rgb(252,131,0);fill-rule:nonzero;"/>
                            <path d="M693.28,46.26L716.33,46.26L716.33,61.52L693.28,61.52L693.28,92.82L722.28,92.82L722.28,108.09L676.48,108.09L676.48,1.22L722.28,1.22L722.28,16.49L693.28,16.49L693.28,46.26Z" style="fill:rgb(252,131,0);fill-rule:nonzero;"/>
                            <path d="M767.78,108.09C766.87,105.34 766.26,103.66 766.26,94.96L766.26,78.16C766.26,68.24 762.9,64.58 755.26,64.58L749.46,64.58L749.46,108.09L732.67,108.09L732.67,1.22L758,1.22C775.41,1.22 782.89,9.31 782.89,25.8L782.89,34.2C782.89,45.2 779.38,52.36 771.89,55.88C780.29,59.39 783.04,67.48 783.04,78.62L783.04,95.11C783.04,100.3 783.19,104.11 784.87,108.11L767.78,108.09ZM749.46,16.49L749.46,49.31L756,49.31C762.26,49.31 766.07,46.56 766.07,38.01L766.07,27.48C766.07,19.85 763.48,16.48 757.52,16.48L749.46,16.49Z" style="fill:rgb(252,131,0);fill-rule:nonzero;"/>
                            <path d="M419.7,267.85C418.79,265.11 418.18,263.43 418.18,254.73L418.18,237.93C418.18,228.01 414.82,224.34 407.18,224.34L401.38,224.34L401.38,267.85L384.59,267.85L384.59,161L409.93,161C427.34,161 434.82,169.09 434.82,185.58L434.82,194C434.82,205 431.31,212.17 423.82,215.68C432.22,219.19 434.97,227.29 434.97,238.43L434.97,254.92C434.97,260.11 435.12,263.92 436.8,267.92L419.7,267.85ZM401.38,176.26L401.38,209.08L408,209.08C414.26,209.08 418.07,206.33 418.07,197.78L418.07,187.25C418.07,179.61 415.48,176.25 409.52,176.25L401.38,176.26Z" style="fill:rgb(252,131,0);fill-rule:nonzero;"/>
                            <path d="M500.31,267.85L483.37,267.85L480.46,248.47L459.85,248.47L457,267.85L441.54,267.85L458.63,161L483.21,161L500.31,267.85ZM462,234L478.18,234L470.09,180L462,234Z" style="fill:rgb(252,131,0);fill-rule:nonzero;"/>
                            <rect x="508.1" y="161" width="16.79" height="106.85" style="fill:rgb(252,131,0);fill-rule:nonzero;"/>
                            <path d="M537.1,161L553.9,161L553.9,252.6L581.53,252.6L581.53,267.86L537.1,267.86L537.1,161Z" style="fill:rgb(252,131,0);fill-rule:nonzero;"/>
                        </g>
                    </g>
                </g>
            </g>
        </g>
    </g>
</svg>
