<?xml version="1.0" encoding="UTF-8" standalone="no"?>
<!DOCTYPE svg PUBLIC "-//W3C//DTD SVG 1.1//EN" "http://www.w3.org/Graphics/SVG/1.1/DTD/svg11.dtd">
<svg width="100%" height="100%" viewBox="0 0 923 234" version="1.1" xmlns="http://www.w3.org/2000/svg" xmlns:xlink="http://www.w3.org/1999/xlink" xml:space="preserve" xmlns:serif="http://www.serif.com/" style="fill-rule:evenodd;clip-rule:evenodd;stroke-linejoin:round;stroke-miterlimit:2;">
    <g transform="matrix(5.55556,0,0,5.55556,0,0)">
        <g id="FRC-Guides-Logo" transform="matrix(0.85567,0,0,0.42,0,0)">
            <rect x="0" y="0" width="194" height="100" style="fill:none;"/>
            <g transform="matrix(1.16867,0,0,2.38095,0,-69.0476)">
                <g id="Layer_2" transform="matrix(0.0685844,0,0,0.0685844,0,29.5646)">
                    <g id="Layer_1-2">
                    </g>
                    <g transform="matrix(14.5806,0,0,14.5806,-324.583,-103.938)">
                        <g transform="matrix(48,0,0,48,99.7394,43.8839)">
                        </g>
                        <text x="80.923px" y="43.884px" style="font-family:'D-DIN', sans-serif;font-size:48px;fill:rgb(252,131,0);">/</text>
                    </g>
                    <g transform="matrix(14.5806,0,0,14.5806,-319.752,-494.407)">
                        <g transform="matrix(36,0,0,36,188.848,66.8)">
                        </g>
                        <text x="100px" y="66.8px" style="font-family:'D-DINCondensed', 'D-DIN Condensed', sans-serif;font-stretch:condensed;font-size:36px;fill:rgb(252,131,0);">GUIDES</text>
                    </g>
                </g>
                <g id="Layer_21" serif:id="Layer_2" transform="matrix(0.0672655,0,0,0.0672655,0,30)">
                    <g id="Layer_1-21" serif:id="Layer_1-2">
                        <path d="M324.48,140.82L315.54,161.2L442.83,161.2L433.89,140.82L324.48,140.82Z" style="fill:rgb(252,131,0);fill-rule:nonzero;"/>
                        <path d="M266.66,273.94L491.71,273.94L473.41,231.5L284.96,231.5L266.66,273.94Z" style="fill:rgb(252,131,0);fill-rule:nonzero;"/>
                        <path d="M224.85,370.03L183.25,465.51L575.12,465.51L533.52,370.03L224.85,370.03Z" style="fill:rgb(252,131,0);fill-rule:nonzero;"/>
                        <path d="M174.31,273.94L197.6,273.94L228.18,231.5L206.13,231.5L174.31,273.94Z" style="fill:rgb(252,131,0);fill-rule:nonzero;"/>
                        <path d="M258.96,161.2L278.72,161.2L293.28,141.03L293.49,140.82L274.14,140.82L258.96,161.2Z" style="fill:rgb(252,131,0);fill-rule:nonzero;"/>
                        <path d="M318.03,82.78L331.97,82.78L333.63,80.08L338.83,71.97L326.14,71.97L318.03,82.78Z" style="fill:rgb(252,131,0);fill-rule:nonzero;"/>
                        <path d="M419.33,71.97L424.53,80.08L426.4,82.78L440.13,82.78L432.02,71.97L419.33,71.97Z" style="fill:rgb(252,131,0);fill-rule:nonzero;"/>
                        <path d="M483.81,140.82L464.46,140.82L466.55,143.73L466.96,144.35L467.38,144.98L479.23,161.2L499.2,161.2L483.81,140.82Z" style="fill:rgb(252,131,0);fill-rule:nonzero;"/>
                        <path d="M529.99,231.5L560.56,273.94L583.86,273.94L552.03,231.5L529.99,231.5Z" style="fill:rgb(252,131,0);fill-rule:nonzero;"/>
                        <path d="M719.89,537.89L693.06,496.89C693.06,496.69 693.06,496.69 693.27,496.69C696.39,489.61 699.51,482.54 702.42,475.26C702.83,474.26 703.25,473.18 703.67,472.14C704.5,470.06 705.33,467.77 706.16,465.49C708.66,458.83 710.74,451.97 712.82,445.31C719.825,420.729 724.285,395.493 726.13,370C726.55,362.52 726.76,355.033 726.76,347.54C726.76,155.59 571,0 379.19,0C187.2,0 31.62,155.59 31.62,347.57C31.62,355.063 31.827,362.55 32.24,370.03C33.879,395.476 38.344,420.661 45.55,445.12C47.42,451.99 49.71,458.85 52,465.51C52.83,467.59 53.66,469.87 54.5,472.16L55.74,475.28C58.66,482.56 61.78,489.633 65.1,496.5L65.1,496.91L38.27,537.91L0,595.92L98.8,595.92L162.24,465.51L208.62,370L255.42,273.91L276,231.51L310.11,161.2L310.32,161.2L313.23,154.96L320.09,140.82L348.38,82.82L410,82.82L418.11,99.66L425.39,114.66L438.08,140.87L438.08,141L448.08,161.17L482.2,231.48L502.79,273.91L512.98,294.91L539.35,349L549.54,370L590.54,454.24L595.95,465.48L599.7,472.96L633.6,542.85L646.5,569.48L659.39,595.89L758.19,595.89L719.89,537.89ZM656,370L609.44,370L560.15,295L546.42,274L518.34,231.57L472.16,161.2L458.85,141L458.64,140.79L434.31,103.79L420.58,82.79L413.51,72L404.56,58.48L398.11,58.48L403.94,72L354.43,72L360.26,58.48L353.6,58.48L344.66,72L337.58,82.82L323.86,103.82L299.52,140.82L299.31,140.82L286,161.2L239.82,231.51L212,273.94L199.89,292L162.45,349L151.45,365.64L151.66,365.64L148.72,370L101.92,370L66.14,417.87C62.591,402.12 60.297,386.113 59.28,370C58.66,362.52 58.45,355 58.45,347.54C58.45,261.84 91.73,181.35 152.26,120.82C212.273,60.436 294.056,26.56 379.19,26.82C464.88,26.82 545.38,60.1 605.91,120.82C666.236,180.787 700.107,262.48 699.91,347.54C699.91,355.03 699.7,362.54 699.08,370C697.958,386.092 695.665,402.081 692.22,417.84L656,370Z" style="fill:rgb(252,131,0);fill-rule:nonzero;"/>
                    </g>
                </g>
            </g>
        </g>
    </g>
</svg>
