<svg xmlns="http://www.w3.org/2000/svg" viewBox="0 0 784.88 267.95"><defs><style>.cls-1{fill:#fc8300;}</style></defs><g id="Layer_2" data-name="Layer 2"><g id="Layer_1-2" data-name="Layer 1"><polygon class="cls-1" points="145.13 64.39 141.13 73.51 198.06 73.51 194.06 64.39 145.13 64.39"/><polygon class="cls-1" points="119.27 123.94 219.93 123.94 211.74 104.96 127.45 104.96 119.27 123.94"/><polygon class="cls-1" points="100.57 166.92 81.96 209.62 257.23 209.62 238.63 166.92 100.57 166.92"/><polygon class="cls-1" points="77.96 123.94 88.38 123.94 102.06 104.96 92.19 104.96 77.96 123.94"/><polygon class="cls-1" points="115.82 73.51 124.66 73.51 131.17 64.49 131.27 64.39 122.62 64.39 115.82 73.51"/><polygon class="cls-1" points="142.25 38.44 148.48 38.44 149.22 37.23 151.55 33.6 145.87 33.6 142.25 38.44"/><polygon class="cls-1" points="187.55 33.6 189.88 37.23 190.72 38.44 196.85 38.44 193.23 33.6 187.55 33.6"/><polygon class="cls-1" points="207.83 64.39 207.74 64.39 208.67 65.7 208.86 65.98 209.04 66.26 214.34 73.51 223.28 73.51 216.39 64.39 207.83 64.39"/><polygon class="cls-1" points="237.04 104.96 250.72 123.94 261.14 123.94 246.91 104.96 237.04 104.96"/><path class="cls-1" d="M322,242l-12-18.32c0-.1,0-.1.09-.1,1.4-3.16,2.8-6.32,4.1-9.58.18-.47.37-.93.56-1.4.37-.93.74-2,1.11-3,1.12-3,2.05-6.05,3-9a166.11,166.11,0,0,0,5.95-33.67q.28-5,.28-10a155.46,155.46,0,1,0-310.91,0q0,5,.28,10a153.73,153.73,0,0,0,6,33.58c.84,3.07,1.86,6.14,2.89,9.12.37.93.74,1.95,1.11,3,.19.47.38.93.56,1.4q2,4.89,4.19,9.49v.19L17.12,242,0,268H44.19l28.37-58.33,20.75-42.7,20.93-43,9.21-19,15.26-31.45h.09l1.31-2.79,3.07-6.32,12.65-26h27.54L187,46l3.26,6.69,5.67,11.73v.09l4.47,9L215.65,105l9.21,19,4.56,9.39,11.81,24.19,4.56,9.4,18.33,37.67,2.42,5,1.67,3.35,15.16,31.26,5.77,11.9L294.91,268H339.1Zm-28.56-75.07H272.58l-22-33.59-6.14-9.39-12.56-19L211.18,73.51l-6-9-.1-.09L194.25,47.84l-6.14-9.4L185,33.6l-4-6.05h-2.89l2.61,6.05H158.53l2.6-6.05h-3l-4,6.05L151,38.44l-6.14,9.4L134,64.4h-.1l-6,9.11L107.27,105l-12.47,19L89.4,132,72.66,157.52,67.73,165h.09l-1.3,2H45.59l-16,21.39a136.93,136.93,0,0,1-3.07-21.39c-.28-3.35-.37-6.7-.37-10A143.41,143.41,0,0,1,271,55.46a142.54,142.54,0,0,1,42.05,101.41c0,3.35-.09,6.7-.37,10a148.51,148.51,0,0,1-3.07,21.39Z"/><path class="cls-1" d="M401.38,48.7h21.68V64H401.38v44.12H384.59V1.22H429V16.49H401.38Z"/><path class="cls-1" d="M435.73,26.87c0-17.1,9-26.87,25.5-26.87s25.49,9.77,25.49,26.87V82.44c0,17.1-9,26.87-25.49,26.87s-25.5-9.77-25.5-26.87Zm16.8,56.64c0,7.63,3.35,10.53,8.7,10.53s8.7-2.9,8.7-10.53V25.8c0-7.63-3.36-10.53-8.7-10.53s-8.7,2.9-8.7,10.53Z"/><path class="cls-1" d="M532.68,108.09c-.92-2.75-1.53-4.43-1.53-13.13V78.16c0-9.92-3.36-13.58-11-13.58h-5.8v43.51h-16.8V1.22h25.35c17.4,0,24.88,8.09,24.88,24.58v8.4c0,11-3.51,18.16-11,21.68,8.39,3.51,11.14,11.6,11.14,22.74V95.11c0,5.19.16,9,1.83,13Zm-18.32-91.6V49.31h6.56c6.26,0,10.08-2.75,10.08-11.3V27.48c0-7.63-2.6-11-8.55-11Z"/><path class="cls-1" d="M575.73,46.26h23V61.52h-23v31.3h29v15.27h-45.8V1.22h45.8V16.49h-29Z"/><path class="cls-1" d="M640.46,88.39,653.28,1.22H668.7L652.21,108.09h-25L610.69,1.22h16.95Z"/><path class="cls-1" d="M693.28,46.26h23.05V61.52H693.28v31.3h29v15.27h-45.8V1.22h45.8V16.49h-29Z"/><path class="cls-1" d="M767.78,108.09c-.91-2.75-1.52-4.43-1.52-13.13V78.16c0-9.92-3.36-13.58-11-13.58h-5.8v43.51H732.67V1.22H758c17.41,0,24.89,8.09,24.89,24.58v8.4c0,11-3.51,18.16-11,21.68,8.4,3.51,11.15,11.6,11.15,22.74V95.11c0,5.19.15,9,1.83,13Zm-18.32-91.6V49.31H756c6.26,0,10.07-2.75,10.07-11.3V27.48c0-7.63-2.59-11-8.55-11Z"/><path class="cls-1" d="M419.7,267.85c-.91-2.74-1.52-4.42-1.52-13.12v-16.8c0-9.92-3.36-13.59-11-13.59h-5.8v43.51H384.59V161h25.34c17.41,0,24.89,8.09,24.89,24.58V194c0,11-3.51,18.17-11,21.68,8.4,3.51,11.15,11.61,11.15,22.75v16.49c0,5.19.15,9,1.83,13Zm-18.32-91.59v32.82H408c6.26,0,10.07-2.75,10.07-11.3V187.25c0-7.64-2.59-11-8.55-11Z"/><path class="cls-1" d="M500.31,267.85H483.37l-2.91-19.38H459.85L457,267.85H441.54L458.63,161h24.58ZM462,234h16.18l-8.09-54Z"/><path class="cls-1" d="M508.1,161h16.79V267.85H508.1Z"/><path class="cls-1" d="M537.1,161h16.8v91.6h27.63v15.26H537.1Z"/></g></g></svg>
